<svg width="2206" height="927" viewBox="0 0 2206 927" fill="none" xmlns="http://www.w3.org/2000/svg">
<path d="M462.5 25C478.333 25 492.5 25.4166 505 26.25L538.75 901.25C524.583 903.75 509.167 905.417 492.5 906.25C476.667 907.083 460.833 907.5 445 907.5C430 907.5 415 907.5 400 907.5C385.833 907.5 373.75 907.917 363.75 908.75H362.5C358.333 881.25 355.417 852.917 353.75 823.75C352.917 793.75 352.083 764.167 351.25 735C351.25 705.833 350.833 676.667 350 647.5C349.167 618.333 347.083 590.417 343.75 563.75L342.5 562.5C318.333 558.333 294.167 556.25 270 556.25C245.833 556.25 221.667 559.167 197.5 565C195 594.167 193.75 622.917 193.75 651.25C194.583 679.583 195.417 707.917 196.25 736.25C197.083 764.583 197.083 792.5 196.25 820C196.25 846.667 194.167 873.333 190 900C180 905.833 166.667 908.75 150 908.75C133.333 908.75 116.667 907.917 100 906.25C83.3333 904.583 67.5 903.333 52.5 902.5C38.3333 901.667 27.5 903.333 20 907.5C18.3333 884.167 16.25 852.5 13.75 812.5C12.0833 771.667 10.4167 726.25 8.75 676.25C7.08334 625.417 5.41667 571.667 3.75 515C2.91667 458.333 2.08334 401.667 1.25 345C0.416669 287.5 3.12924e-06 232.5 3.12924e-06 180C0.833335 126.667 1.66667 78.75 2.5 36.25V34.9999H3.75H6.25C18.75 37.4999 31.6667 38.3333 45 37.5C59.1667 36.6666 72.9167 35.8333 86.25 34.9999C100.417 34.1666 114.167 33.7499 127.5 33.7499C140.833 33.7499 153.333 35.4166 165 38.75C172.5 96.25 176.25 152.083 176.25 206.25C176.25 260.417 181.25 314.167 191.25 367.5H192.5C213.333 372.5 235.833 374.167 260 372.5C284.167 370 306.667 367.917 327.5 366.25H328.75C333.75 308.75 336.25 255 336.25 205C337.083 155 336.25 100 333.75 39.9999C343.75 36.6666 355.833 33.7499 370 31.25C385 28.75 400.417 27.0833 416.25 26.25C432.083 24.5833 447.5 24.1667 462.5 25ZM811.279 598.75C792.946 597.917 779.613 596.667 771.279 595V617.5C772.113 642.5 772.946 662.917 773.779 678.75C775.446 694.583 780.863 710 790.029 725C800.029 744.167 814.196 758.333 832.529 767.5C850.863 776.667 868.779 779.583 886.279 776.25C903.779 772.917 918.363 762.917 930.029 746.25C942.529 728.75 947.946 702.917 946.279 668.75C954.613 669.583 965.863 670 980.029 670C994.196 669.167 1008.78 668.333 1023.78 667.5C1039.61 666.667 1054.61 666.667 1068.78 667.5C1082.95 667.5 1094.61 668.75 1103.78 671.25C1102.11 692.917 1100.45 714.167 1098.78 735C1097.11 755.833 1095.03 775.417 1092.53 793.75C1090.03 811.25 1086.7 826.667 1082.53 840C1079.2 852.5 1074.61 861.25 1068.78 866.25C1054.61 886.25 1036.28 900.417 1013.78 908.75C991.279 917.083 966.696 922.083 940.029 923.75C913.363 925.417 885.863 925.417 857.529 923.75C830.029 922.083 804.613 921.25 781.279 921.25C757.946 917.917 736.279 910.417 716.279 898.75C693.779 882.917 675.029 862.5 660.029 837.5C645.029 811.667 632.946 783.75 623.779 753.75C614.613 722.917 608.363 690.417 605.029 656.25C601.696 622.083 600.863 587.917 602.529 553.75C605.029 522.917 607.529 493.333 610.029 465C613.363 435.833 620.029 407.5 630.029 380C640.863 355.833 657.529 335.417 680.029 318.75C702.529 301.25 727.946 288.333 756.279 280C784.613 270.833 814.613 265.833 846.279 265C877.946 264.167 908.779 267.5 938.779 275C977.113 281.667 1007.95 295 1031.28 315C1054.61 335 1072.11 359.167 1083.78 387.5C1096.28 415.833 1103.78 447.083 1106.28 481.25C1108.78 515.417 1108.78 550 1106.28 585C1100.45 586.667 1089.2 588.333 1072.53 590C1056.7 591.667 1037.53 593.333 1015.03 595C993.363 596.667 970.029 597.917 945.029 598.75C920.029 599.583 895.863 600 872.529 600C850.029 600 829.613 599.583 811.279 598.75ZM957.529 435C949.196 420 937.529 408.75 922.529 401.25C915.863 397.083 909.196 394.167 902.529 392.5C895.863 390 887.946 388.75 878.779 388.75C858.779 388.75 842.529 390.833 830.029 395C817.529 399.167 807.529 405 800.029 412.5C792.529 420 786.696 428.75 782.529 438.75C779.196 448.75 776.696 459.167 775.029 470C773.363 479.167 772.529 485.833 772.529 490C773.363 493.333 777.529 495.833 785.029 497.5C792.529 498.333 804.196 498.75 820.029 498.75C836.696 497.917 860.863 497.5 892.529 497.5C914.196 497.5 930.446 497.917 941.279 498.75C952.113 499.583 959.613 500 963.779 500C968.779 499.167 971.279 497.917 971.279 496.25C971.279 493.75 971.279 489.167 971.279 482.5C971.279 465.833 966.696 450 957.529 435ZM1169.2 227.5C1169.2 151.667 1172.95 75.8333 1180.45 -7.21216e-05L1350.45 3.74995C1350.45 37.9166 1350.03 79.1666 1349.2 127.5C1348.37 175.833 1347.53 227.5 1346.7 282.5C1345.87 337.5 1345.03 394.583 1344.2 453.75C1344.2 512.917 1344.2 570 1344.2 625C1344.2 680 1344.62 731.667 1345.45 780C1346.28 827.5 1347.53 867.917 1349.2 901.25C1345.03 906.25 1334.62 908.75 1317.95 908.75C1301.28 909.583 1282.95 909.583 1262.95 908.75C1243.78 908.75 1225.45 908.333 1207.95 907.5C1190.45 906.667 1178.78 907.083 1172.95 908.75C1178.78 833.75 1180.87 758.333 1179.2 682.5C1178.37 606.667 1176.7 530.833 1174.2 455C1171.7 379.167 1170.03 303.333 1169.2 227.5ZM1598.02 320C1598.02 329.167 1598.43 339.583 1599.27 351.25C1603.43 348.75 1608.43 345.833 1614.27 342.5C1620.93 339.167 1626.35 335.833 1630.52 332.5C1648.02 320 1667.6 310 1689.27 302.5C1710.93 295 1733.02 290.833 1755.52 290C1778.85 289.167 1801.35 291.667 1823.02 297.5C1844.68 303.333 1864.27 313.75 1881.77 328.75C1885.93 332.917 1890.1 340 1894.27 350C1898.43 347.5 1903.43 345 1909.27 342.5C1915.1 339.167 1920.1 335.833 1924.27 332.5C1941.77 320 1961.35 310 1983.02 302.5C2004.68 295 2026.77 290.833 2049.27 290C2072.6 289.167 2095.1 291.667 2116.77 297.5C2138.43 303.333 2158.02 313.75 2175.52 328.75C2183.85 336.25 2190.1 352.083 2194.27 376.25C2199.27 399.583 2202.18 427.917 2203.02 461.25C2204.68 494.583 2205.1 531.25 2204.27 571.25C2204.27 610.417 2203.85 650.417 2203.02 691.25C2202.18 731.25 2201.35 770 2200.52 807.5C2199.68 845 2200.1 877.917 2201.77 906.25C2172.6 910.417 2146.35 912.083 2123.02 911.25C2100.52 911.25 2074.68 911.25 2045.52 911.25C2043.85 892.083 2043.02 870.417 2043.02 846.25C2043.02 822.083 2043.02 797.083 2043.02 771.25C2043.85 745.417 2043.85 719.583 2043.02 693.75C2043.02 667.917 2042.18 643.75 2040.52 621.25C2039.68 611.25 2038.85 600.417 2038.02 588.75C2037.18 576.25 2035.52 564.167 2033.02 552.5C2031.35 540.833 2028.43 530.417 2024.27 521.25C2020.93 512.083 2015.93 505 2009.27 500C2008.43 499.167 2007.6 498.75 2006.77 498.75C2005.93 498.75 2005.1 498.333 2004.27 497.5C1999.27 495 1993.02 492.917 1985.52 491.25C1978.02 489.583 1969.68 488.75 1960.52 488.75C1952.18 488.75 1943.43 490.417 1934.27 493.75C1925.93 496.25 1918.02 500.417 1910.52 506.25C1911.35 538.75 1911.35 573.333 1910.52 610C1909.68 645.833 1908.85 681.667 1908.02 717.5C1907.18 752.5 1906.35 786.667 1905.52 820C1905.52 852.5 1906.35 881.25 1908.02 906.25C1878.85 910.417 1852.6 912.083 1829.27 911.25C1806.77 911.25 1780.93 911.25 1751.77 911.25C1750.1 892.083 1749.27 870.417 1749.27 846.25C1749.27 822.083 1749.27 797.083 1749.27 771.25C1750.1 745.417 1750.1 719.583 1749.27 693.75C1749.27 667.917 1748.43 643.75 1746.77 621.25C1745.93 611.25 1745.1 600.417 1744.27 588.75C1743.43 576.25 1741.77 564.167 1739.27 552.5C1737.6 540.833 1734.68 530.417 1730.52 521.25C1727.18 512.083 1722.18 505 1715.52 500C1714.68 499.167 1713.85 498.75 1713.02 498.75C1712.18 498.75 1711.35 498.333 1710.52 497.5C1703.85 494.167 1693.85 491.667 1680.52 490C1668.02 487.5 1655.52 488.333 1643.02 492.5C1630.52 495.833 1619.27 503.333 1609.27 515C1599.27 525.833 1593.43 542.5 1591.77 565C1590.1 594.167 1589.68 622.917 1590.52 651.25C1591.35 678.75 1592.18 706.667 1593.02 735C1594.68 762.5 1595.52 790 1595.52 817.5C1595.52 845 1593.85 872.5 1590.52 900V905C1576.35 909.167 1563.85 911.667 1553.02 912.5C1543.02 913.333 1532.6 913.333 1521.77 912.5C1510.93 912.5 1498.85 912.083 1485.52 911.25C1472.18 910.417 1455.52 910.833 1435.52 912.5C1435.52 810 1434.27 707.5 1431.77 605C1430.1 502.5 1430.93 396.25 1434.27 286.25C1444.27 287.083 1452.6 287.917 1459.27 288.75C1465.93 288.75 1472.18 288.75 1478.02 288.75C1483.85 288.75 1490.1 288.75 1496.77 288.75C1503.43 287.917 1511.77 287.083 1521.77 286.25C1525.1 286.25 1530.93 285.833 1539.27 285C1547.6 283.333 1555.93 282.083 1564.27 281.25C1572.6 280.417 1580.1 280.417 1586.77 281.25C1593.43 281.25 1596.77 282.5 1596.77 285C1598.43 299.167 1598.85 310.833 1598.02 320Z" fill="white"/>
</svg>
